<mxfile host="app.diagrams.net" agent="Mozilla/5.0 (Windows NT 10.0; Win64; x64) AppleWebKit/537.36 (KHTML, like Gecko) Chrome/140.0.0.0 Safari/537.36" version="28.2.1">
  <diagram name="Page-1" id="9THPmvi0cE5zZd17gpQG">
    <mxGraphModel dx="601" dy="414" grid="1" gridSize="10" guides="1" tooltips="1" connect="1" arrows="1" fold="1" page="1" pageScale="1" pageWidth="850" pageHeight="1100" math="0" shadow="0">
      <root>
        <mxCell id="0" />
        <mxCell id="1" parent="0" />
        <mxCell id="nnFgvvDzqhvfjOIkeC-j-11" style="edgeStyle=none;shape=connector;rounded=0;orthogonalLoop=1;jettySize=auto;html=1;exitX=0.5;exitY=1;exitDx=0;exitDy=0;entryX=0.5;entryY=0;entryDx=0;entryDy=0;strokeColor=default;align=center;verticalAlign=middle;fontFamily=Helvetica;fontSize=12;fontColor=default;labelBackgroundColor=default;endArrow=none;" edge="1" parent="1" source="nnFgvvDzqhvfjOIkeC-j-1" target="nnFgvvDzqhvfjOIkeC-j-2">
          <mxGeometry relative="1" as="geometry" />
        </mxCell>
        <mxCell id="nnFgvvDzqhvfjOIkeC-j-23" style="edgeStyle=none;shape=connector;rounded=0;orthogonalLoop=1;jettySize=auto;html=1;exitX=0;exitY=0.5;exitDx=0;exitDy=0;entryX=0;entryY=0.5;entryDx=0;entryDy=0;strokeColor=default;align=center;verticalAlign=middle;fontFamily=Helvetica;fontSize=12;fontColor=default;labelBackgroundColor=default;endArrow=none;" edge="1" parent="1" source="nnFgvvDzqhvfjOIkeC-j-1" target="nnFgvvDzqhvfjOIkeC-j-22">
          <mxGeometry relative="1" as="geometry" />
        </mxCell>
        <mxCell id="nnFgvvDzqhvfjOIkeC-j-1" value="Profesor" style="whiteSpace=wrap;html=1;align=center;" vertex="1" parent="1">
          <mxGeometry x="370" y="225" width="100" height="40" as="geometry" />
        </mxCell>
        <mxCell id="nnFgvvDzqhvfjOIkeC-j-2" value="&lt;span style=&quot;border-bottom: 1px dotted&quot;&gt;dni&lt;/span&gt;" style="ellipse;whiteSpace=wrap;html=1;align=center;" vertex="1" parent="1">
          <mxGeometry x="300" y="290" width="70" height="30" as="geometry" />
        </mxCell>
        <mxCell id="nnFgvvDzqhvfjOIkeC-j-13" style="edgeStyle=none;shape=connector;rounded=0;orthogonalLoop=1;jettySize=auto;html=1;exitX=0.5;exitY=0;exitDx=0;exitDy=0;strokeColor=default;align=center;verticalAlign=middle;fontFamily=Helvetica;fontSize=12;fontColor=default;labelBackgroundColor=default;endArrow=none;entryX=0.5;entryY=1;entryDx=0;entryDy=0;" edge="1" parent="1" source="nnFgvvDzqhvfjOIkeC-j-12" target="nnFgvvDzqhvfjOIkeC-j-1">
          <mxGeometry relative="1" as="geometry">
            <mxPoint x="430.0344827586207" y="290" as="targetPoint" />
          </mxGeometry>
        </mxCell>
        <mxCell id="nnFgvvDzqhvfjOIkeC-j-12" value="nombre" style="ellipse;whiteSpace=wrap;html=1;align=center;dashed=0;strokeColor=default;strokeWidth=1;verticalAlign=middle;spacingLeft=6;spacingTop=0;fontFamily=Helvetica;fontSize=12;fontColor=default;labelBackgroundColor=default;fillColor=default;" vertex="1" parent="1">
          <mxGeometry x="380" y="310" width="60" height="30" as="geometry" />
        </mxCell>
        <mxCell id="nnFgvvDzqhvfjOIkeC-j-15" style="edgeStyle=none;shape=connector;rounded=0;orthogonalLoop=1;jettySize=auto;html=1;exitX=0;exitY=0;exitDx=0;exitDy=0;entryX=0.5;entryY=1;entryDx=0;entryDy=0;strokeColor=default;align=center;verticalAlign=middle;fontFamily=Helvetica;fontSize=12;fontColor=default;labelBackgroundColor=default;endArrow=none;" edge="1" parent="1" source="nnFgvvDzqhvfjOIkeC-j-14" target="nnFgvvDzqhvfjOIkeC-j-1">
          <mxGeometry relative="1" as="geometry" />
        </mxCell>
        <mxCell id="nnFgvvDzqhvfjOIkeC-j-19" style="edgeStyle=none;shape=connector;rounded=0;orthogonalLoop=1;jettySize=auto;html=1;exitX=1;exitY=0.5;exitDx=0;exitDy=0;entryX=0;entryY=0.5;entryDx=0;entryDy=0;strokeColor=default;align=center;verticalAlign=middle;fontFamily=Helvetica;fontSize=12;fontColor=default;labelBackgroundColor=default;endArrow=none;" edge="1" parent="1" source="nnFgvvDzqhvfjOIkeC-j-14" target="nnFgvvDzqhvfjOIkeC-j-16">
          <mxGeometry relative="1" as="geometry" />
        </mxCell>
        <mxCell id="nnFgvvDzqhvfjOIkeC-j-20" style="edgeStyle=none;shape=connector;rounded=0;orthogonalLoop=1;jettySize=auto;html=1;exitX=1;exitY=1;exitDx=0;exitDy=0;entryX=0;entryY=0;entryDx=0;entryDy=0;strokeColor=default;align=center;verticalAlign=middle;fontFamily=Helvetica;fontSize=12;fontColor=default;labelBackgroundColor=default;endArrow=none;" edge="1" parent="1" source="nnFgvvDzqhvfjOIkeC-j-14" target="nnFgvvDzqhvfjOIkeC-j-18">
          <mxGeometry relative="1" as="geometry" />
        </mxCell>
        <mxCell id="nnFgvvDzqhvfjOIkeC-j-14" value="domicilio" style="ellipse;whiteSpace=wrap;html=1;align=center;dashed=0;strokeColor=default;strokeWidth=1;verticalAlign=middle;spacingLeft=6;spacingTop=0;fontFamily=Helvetica;fontSize=12;fontColor=default;labelBackgroundColor=default;fillColor=default;" vertex="1" parent="1">
          <mxGeometry x="460" y="310" width="60" height="30" as="geometry" />
        </mxCell>
        <mxCell id="nnFgvvDzqhvfjOIkeC-j-16" value="calle" style="ellipse;whiteSpace=wrap;html=1;align=center;dashed=0;strokeColor=default;strokeWidth=1;verticalAlign=middle;spacingLeft=6;spacingTop=0;fontFamily=Helvetica;fontSize=12;fontColor=default;labelBackgroundColor=default;fillColor=default;" vertex="1" parent="1">
          <mxGeometry x="540" y="320" width="60" height="30" as="geometry" />
        </mxCell>
        <mxCell id="nnFgvvDzqhvfjOIkeC-j-17" value="cp" style="ellipse;whiteSpace=wrap;html=1;align=center;dashed=0;strokeColor=default;strokeWidth=1;verticalAlign=middle;spacingLeft=6;spacingTop=0;fontFamily=Helvetica;fontSize=12;fontColor=default;labelBackgroundColor=default;fillColor=default;" vertex="1" parent="1">
          <mxGeometry x="550" y="400" width="40" height="30" as="geometry" />
        </mxCell>
        <mxCell id="nnFgvvDzqhvfjOIkeC-j-18" value="nro" style="ellipse;whiteSpace=wrap;html=1;align=center;dashed=0;strokeColor=default;strokeWidth=1;verticalAlign=middle;spacingLeft=6;spacingTop=0;fontFamily=Helvetica;fontSize=12;fontColor=default;labelBackgroundColor=default;fillColor=default;" vertex="1" parent="1">
          <mxGeometry x="550" y="360" width="40" height="30" as="geometry" />
        </mxCell>
        <mxCell id="nnFgvvDzqhvfjOIkeC-j-21" style="edgeStyle=none;shape=connector;rounded=0;orthogonalLoop=1;jettySize=auto;html=1;exitX=1;exitY=1;exitDx=0;exitDy=0;entryX=0.001;entryY=0.315;entryDx=0;entryDy=0;entryPerimeter=0;strokeColor=default;align=center;verticalAlign=middle;fontFamily=Helvetica;fontSize=12;fontColor=default;labelBackgroundColor=default;endArrow=none;" edge="1" parent="1" source="nnFgvvDzqhvfjOIkeC-j-14" target="nnFgvvDzqhvfjOIkeC-j-17">
          <mxGeometry relative="1" as="geometry" />
        </mxCell>
        <mxCell id="nnFgvvDzqhvfjOIkeC-j-22" value="telefono" style="ellipse;shape=doubleEllipse;margin=3;whiteSpace=wrap;html=1;align=center;dashed=0;strokeColor=default;strokeWidth=1;verticalAlign=middle;spacingLeft=6;spacingTop=0;fontFamily=Helvetica;fontSize=12;fontColor=default;labelBackgroundColor=default;fillColor=default;" vertex="1" parent="1">
          <mxGeometry x="230" y="235" width="70" height="30" as="geometry" />
        </mxCell>
        <mxCell id="nnFgvvDzqhvfjOIkeC-j-24" value="Modulo" style="whiteSpace=wrap;html=1;align=center;" vertex="1" parent="1">
          <mxGeometry x="620" y="225" width="100" height="40" as="geometry" />
        </mxCell>
        <mxCell id="nnFgvvDzqhvfjOIkeC-j-26" value="" style="endArrow=none;html=1;rounded=0;strokeColor=default;align=center;verticalAlign=middle;fontFamily=Helvetica;fontSize=12;fontColor=default;labelBackgroundColor=default;entryX=0;entryY=0.5;entryDx=0;entryDy=0;exitX=1;exitY=0.5;exitDx=0;exitDy=0;" edge="1" parent="1" source="nnFgvvDzqhvfjOIkeC-j-29" target="nnFgvvDzqhvfjOIkeC-j-24">
          <mxGeometry relative="1" as="geometry">
            <mxPoint x="480" y="250" as="sourcePoint" />
            <mxPoint x="610" y="250" as="targetPoint" />
          </mxGeometry>
        </mxCell>
        <mxCell id="nnFgvvDzqhvfjOIkeC-j-28" value="N" style="resizable=0;html=1;whiteSpace=wrap;align=right;verticalAlign=bottom;dashed=0;strokeColor=default;strokeWidth=1;spacingLeft=6;spacingTop=0;fontFamily=Helvetica;fontSize=12;fontColor=default;labelBackgroundColor=default;fillColor=default;" connectable="0" vertex="1" parent="nnFgvvDzqhvfjOIkeC-j-26">
          <mxGeometry x="1" relative="1" as="geometry" />
        </mxCell>
        <mxCell id="nnFgvvDzqhvfjOIkeC-j-30" value="" style="endArrow=none;html=1;rounded=0;strokeColor=default;align=center;verticalAlign=middle;fontFamily=Helvetica;fontSize=12;fontColor=default;labelBackgroundColor=default;entryX=0;entryY=0.5;entryDx=0;entryDy=0;exitX=1;exitY=0.5;exitDx=0;exitDy=0;" edge="1" parent="1" source="nnFgvvDzqhvfjOIkeC-j-1" target="nnFgvvDzqhvfjOIkeC-j-29">
          <mxGeometry relative="1" as="geometry">
            <mxPoint x="470" y="245" as="sourcePoint" />
            <mxPoint x="620" y="245" as="targetPoint" />
          </mxGeometry>
        </mxCell>
        <mxCell id="nnFgvvDzqhvfjOIkeC-j-31" value="1" style="resizable=0;html=1;whiteSpace=wrap;align=left;verticalAlign=bottom;dashed=0;strokeColor=default;strokeWidth=1;spacingLeft=6;spacingTop=0;fontFamily=Helvetica;fontSize=12;fontColor=default;labelBackgroundColor=default;fillColor=default;" connectable="0" vertex="1" parent="nnFgvvDzqhvfjOIkeC-j-30">
          <mxGeometry x="-1" relative="1" as="geometry" />
        </mxCell>
        <mxCell id="nnFgvvDzqhvfjOIkeC-j-29" value="imparte" style="shape=rhombus;perimeter=rhombusPerimeter;whiteSpace=wrap;html=1;align=center;dashed=0;strokeColor=default;strokeWidth=1;verticalAlign=middle;spacingLeft=6;spacingTop=0;fontFamily=Helvetica;fontSize=12;fontColor=default;labelBackgroundColor=default;fillColor=default;" vertex="1" parent="1">
          <mxGeometry x="530" y="230" width="40" height="30" as="geometry" />
        </mxCell>
        <mxCell id="nnFgvvDzqhvfjOIkeC-j-34" style="edgeStyle=none;shape=connector;rounded=0;orthogonalLoop=1;jettySize=auto;html=1;exitX=1;exitY=1;exitDx=0;exitDy=0;entryX=0.25;entryY=0;entryDx=0;entryDy=0;strokeColor=default;align=center;verticalAlign=middle;fontFamily=Helvetica;fontSize=12;fontColor=default;labelBackgroundColor=default;endArrow=none;" edge="1" parent="1" source="nnFgvvDzqhvfjOIkeC-j-33" target="nnFgvvDzqhvfjOIkeC-j-24">
          <mxGeometry relative="1" as="geometry" />
        </mxCell>
        <mxCell id="nnFgvvDzqhvfjOIkeC-j-33" value="codModulo" style="ellipse;whiteSpace=wrap;html=1;align=center;fontStyle=4;dashed=0;strokeColor=default;strokeWidth=1;verticalAlign=middle;spacingLeft=6;spacingTop=0;fontFamily=Helvetica;fontSize=12;fontColor=default;labelBackgroundColor=default;fillColor=default;" vertex="1" parent="1">
          <mxGeometry x="560" y="170" width="60" height="20" as="geometry" />
        </mxCell>
        <mxCell id="nnFgvvDzqhvfjOIkeC-j-36" style="edgeStyle=none;shape=connector;rounded=0;orthogonalLoop=1;jettySize=auto;html=1;exitX=0.5;exitY=1;exitDx=0;exitDy=0;entryX=0.25;entryY=0;entryDx=0;entryDy=0;strokeColor=default;align=center;verticalAlign=middle;fontFamily=Helvetica;fontSize=12;fontColor=default;labelBackgroundColor=default;endArrow=none;" edge="1" parent="1" source="nnFgvvDzqhvfjOIkeC-j-35" target="nnFgvvDzqhvfjOIkeC-j-24">
          <mxGeometry relative="1" as="geometry" />
        </mxCell>
        <mxCell id="nnFgvvDzqhvfjOIkeC-j-35" value="nombre" style="ellipse;whiteSpace=wrap;html=1;align=center;dashed=0;strokeColor=default;strokeWidth=1;verticalAlign=middle;spacingLeft=6;spacingTop=0;fontFamily=Helvetica;fontSize=12;fontColor=default;labelBackgroundColor=default;fillColor=default;" vertex="1" parent="1">
          <mxGeometry x="650" y="160" width="60" height="30" as="geometry" />
        </mxCell>
        <mxCell id="nnFgvvDzqhvfjOIkeC-j-38" value="Alumno" style="whiteSpace=wrap;html=1;align=center;" vertex="1" parent="1">
          <mxGeometry x="840" y="220" width="100" height="40" as="geometry" />
        </mxCell>
        <mxCell id="nnFgvvDzqhvfjOIkeC-j-40" value="" style="endArrow=none;html=1;rounded=0;strokeColor=default;align=center;verticalAlign=middle;fontFamily=Helvetica;fontSize=12;fontColor=default;labelBackgroundColor=default;exitX=1;exitY=0.5;exitDx=0;exitDy=0;entryX=-0.024;entryY=0.65;entryDx=0;entryDy=0;entryPerimeter=0;" edge="1" parent="1" target="nnFgvvDzqhvfjOIkeC-j-38">
          <mxGeometry relative="1" as="geometry">
            <mxPoint x="790" y="245" as="sourcePoint" />
            <mxPoint x="820" y="320" as="targetPoint" />
          </mxGeometry>
        </mxCell>
        <mxCell id="nnFgvvDzqhvfjOIkeC-j-42" value="N" style="resizable=0;html=1;whiteSpace=wrap;align=right;verticalAlign=bottom;dashed=0;strokeColor=default;strokeWidth=1;spacingLeft=6;spacingTop=0;fontFamily=Helvetica;fontSize=12;fontColor=default;labelBackgroundColor=default;fillColor=default;" connectable="0" vertex="1" parent="nnFgvvDzqhvfjOIkeC-j-40">
          <mxGeometry x="1" relative="1" as="geometry" />
        </mxCell>
        <mxCell id="nnFgvvDzqhvfjOIkeC-j-44" value="" style="endArrow=none;html=1;rounded=0;strokeColor=default;align=center;verticalAlign=middle;fontFamily=Helvetica;fontSize=12;fontColor=default;labelBackgroundColor=default;exitX=1;exitY=0.5;exitDx=0;exitDy=0;entryX=-0.024;entryY=0.65;entryDx=0;entryDy=0;entryPerimeter=0;" edge="1" parent="1" source="nnFgvvDzqhvfjOIkeC-j-24">
          <mxGeometry relative="1" as="geometry">
            <mxPoint x="720" y="245" as="sourcePoint" />
            <mxPoint x="759.28" y="249.5" as="targetPoint" />
          </mxGeometry>
        </mxCell>
        <mxCell id="nnFgvvDzqhvfjOIkeC-j-45" value="N" style="resizable=0;html=1;whiteSpace=wrap;align=left;verticalAlign=bottom;dashed=0;strokeColor=default;strokeWidth=1;spacingLeft=6;spacingTop=0;fontFamily=Helvetica;fontSize=12;fontColor=default;labelBackgroundColor=default;fillColor=default;" connectable="0" vertex="1" parent="nnFgvvDzqhvfjOIkeC-j-44">
          <mxGeometry x="-1" relative="1" as="geometry" />
        </mxCell>
        <mxCell id="nnFgvvDzqhvfjOIkeC-j-47" value="cursa" style="shape=associativeEntity;whiteSpace=wrap;html=1;align=center;dashed=0;strokeColor=default;strokeWidth=1;verticalAlign=middle;spacingLeft=6;spacingTop=0;fontFamily=Helvetica;fontSize=12;fontColor=default;labelBackgroundColor=default;fillColor=default;" vertex="1" parent="1">
          <mxGeometry x="750" y="230" width="50" height="30" as="geometry" />
        </mxCell>
        <mxCell id="nnFgvvDzqhvfjOIkeC-j-50" value="esDelegado" style="ellipse;whiteSpace=wrap;html=1;align=center;dashed=0;strokeColor=default;strokeWidth=1;verticalAlign=middle;spacingLeft=6;spacingTop=0;fontFamily=Helvetica;fontSize=12;fontColor=default;labelBackgroundColor=default;fillColor=default;" vertex="1" parent="1">
          <mxGeometry x="770" y="160" width="60" height="30" as="geometry" />
        </mxCell>
        <mxCell id="nnFgvvDzqhvfjOIkeC-j-51" style="edgeStyle=none;shape=connector;rounded=0;orthogonalLoop=1;jettySize=auto;html=1;exitX=0.5;exitY=1;exitDx=0;exitDy=0;entryX=0.5;entryY=0;entryDx=0;entryDy=0;strokeColor=default;align=center;verticalAlign=middle;fontFamily=Helvetica;fontSize=12;fontColor=default;labelBackgroundColor=default;endArrow=none;" edge="1" parent="1" source="nnFgvvDzqhvfjOIkeC-j-50" target="nnFgvvDzqhvfjOIkeC-j-47">
          <mxGeometry relative="1" as="geometry" />
        </mxCell>
        <mxCell id="nnFgvvDzqhvfjOIkeC-j-54" style="edgeStyle=none;shape=connector;rounded=0;orthogonalLoop=1;jettySize=auto;html=1;exitX=0.5;exitY=0;exitDx=0;exitDy=0;entryX=0.5;entryY=1;entryDx=0;entryDy=0;strokeColor=default;align=center;verticalAlign=middle;fontFamily=Helvetica;fontSize=12;fontColor=default;labelBackgroundColor=default;endArrow=none;" edge="1" parent="1" source="nnFgvvDzqhvfjOIkeC-j-52" target="nnFgvvDzqhvfjOIkeC-j-38">
          <mxGeometry relative="1" as="geometry" />
        </mxCell>
        <mxCell id="nnFgvvDzqhvfjOIkeC-j-52" value="edad" style="ellipse;whiteSpace=wrap;html=1;align=center;dashed=1;strokeColor=default;strokeWidth=1;verticalAlign=middle;spacingLeft=6;spacingTop=0;fontFamily=Helvetica;fontSize=12;fontColor=default;labelBackgroundColor=default;fillColor=default;" vertex="1" parent="1">
          <mxGeometry x="790" y="310" width="60" height="30" as="geometry" />
        </mxCell>
        <mxCell id="nnFgvvDzqhvfjOIkeC-j-56" style="edgeStyle=none;shape=connector;rounded=0;orthogonalLoop=1;jettySize=auto;html=1;exitX=0.5;exitY=0;exitDx=0;exitDy=0;entryX=0.5;entryY=1;entryDx=0;entryDy=0;strokeColor=default;align=center;verticalAlign=middle;fontFamily=Helvetica;fontSize=12;fontColor=default;labelBackgroundColor=default;endArrow=none;" edge="1" parent="1" source="nnFgvvDzqhvfjOIkeC-j-55" target="nnFgvvDzqhvfjOIkeC-j-38">
          <mxGeometry relative="1" as="geometry" />
        </mxCell>
        <mxCell id="nnFgvvDzqhvfjOIkeC-j-55" value="fechaDeNacimiento" style="ellipse;whiteSpace=wrap;html=1;align=center;dashed=0;strokeColor=default;strokeWidth=1;verticalAlign=middle;spacingLeft=6;spacingTop=0;fontFamily=Helvetica;fontSize=12;fontColor=default;labelBackgroundColor=default;fillColor=default;" vertex="1" parent="1">
          <mxGeometry x="880" y="310" width="60" height="30" as="geometry" />
        </mxCell>
        <mxCell id="nnFgvvDzqhvfjOIkeC-j-58" style="edgeStyle=none;shape=connector;rounded=0;orthogonalLoop=1;jettySize=auto;html=1;exitX=0.5;exitY=1;exitDx=0;exitDy=0;entryX=0.5;entryY=0;entryDx=0;entryDy=0;strokeColor=default;align=center;verticalAlign=middle;fontFamily=Helvetica;fontSize=12;fontColor=default;labelBackgroundColor=default;endArrow=none;" edge="1" parent="1" source="nnFgvvDzqhvfjOIkeC-j-57" target="nnFgvvDzqhvfjOIkeC-j-38">
          <mxGeometry relative="1" as="geometry" />
        </mxCell>
        <mxCell id="nnFgvvDzqhvfjOIkeC-j-57" value="nroExpediente" style="ellipse;whiteSpace=wrap;html=1;align=center;fontStyle=4;dashed=0;strokeColor=default;strokeWidth=1;verticalAlign=middle;spacingLeft=6;spacingTop=0;fontFamily=Helvetica;fontSize=12;fontColor=default;labelBackgroundColor=default;fillColor=default;" vertex="1" parent="1">
          <mxGeometry x="860" y="160" width="50" height="30" as="geometry" />
        </mxCell>
        <mxCell id="nnFgvvDzqhvfjOIkeC-j-62" style="edgeStyle=none;shape=connector;rounded=0;orthogonalLoop=1;jettySize=auto;html=1;exitX=0;exitY=0.5;exitDx=0;exitDy=0;entryX=1;entryY=0.5;entryDx=0;entryDy=0;strokeColor=default;align=center;verticalAlign=middle;fontFamily=Helvetica;fontSize=12;fontColor=default;labelBackgroundColor=default;endArrow=none;" edge="1" parent="1" source="nnFgvvDzqhvfjOIkeC-j-59" target="nnFgvvDzqhvfjOIkeC-j-38">
          <mxGeometry relative="1" as="geometry" />
        </mxCell>
        <mxCell id="nnFgvvDzqhvfjOIkeC-j-59" value="nombre" style="ellipse;whiteSpace=wrap;html=1;align=center;dashed=0;strokeColor=default;strokeWidth=1;verticalAlign=middle;spacingLeft=6;spacingTop=0;fontFamily=Helvetica;fontSize=12;fontColor=default;labelBackgroundColor=default;fillColor=default;" vertex="1" parent="1">
          <mxGeometry x="990" y="205" width="60" height="30" as="geometry" />
        </mxCell>
        <mxCell id="nnFgvvDzqhvfjOIkeC-j-61" style="edgeStyle=none;shape=connector;rounded=0;orthogonalLoop=1;jettySize=auto;html=1;exitX=0;exitY=0.5;exitDx=0;exitDy=0;entryX=1;entryY=0.5;entryDx=0;entryDy=0;strokeColor=default;align=center;verticalAlign=middle;fontFamily=Helvetica;fontSize=12;fontColor=default;labelBackgroundColor=default;endArrow=none;" edge="1" parent="1" source="nnFgvvDzqhvfjOIkeC-j-60" target="nnFgvvDzqhvfjOIkeC-j-38">
          <mxGeometry relative="1" as="geometry" />
        </mxCell>
        <mxCell id="nnFgvvDzqhvfjOIkeC-j-60" value="apellidos" style="ellipse;whiteSpace=wrap;html=1;align=center;dashed=0;strokeColor=default;strokeWidth=1;verticalAlign=middle;spacingLeft=6;spacingTop=0;fontFamily=Helvetica;fontSize=12;fontColor=default;labelBackgroundColor=default;fillColor=default;" vertex="1" parent="1">
          <mxGeometry x="980" y="250" width="60" height="30" as="geometry" />
        </mxCell>
      </root>
    </mxGraphModel>
  </diagram>
</mxfile>
